<?xml version="1.0" standalone="no"?><!DOCTYPE svg PUBLIC "-//W3C//DTD SVG 1.1//EN" "http://www.w3.org/Graphics/SVG/1.1/DTD/svg11.dtd"><svg t="1562938035522" class="icon" viewBox="0 0 1024 1024" version="1.1" xmlns="http://www.w3.org/2000/svg" p-id="8627" xmlns:xlink="http://www.w3.org/1999/xlink" width="200" height="200"><defs><style type="text/css"></style></defs><path d="M718.506667 496.213333a128 128 0 0 0 92.16-37.546666l120.746666-120.746667a42.666667 42.666667 0 0 0 0-60.16 42.666667 42.666667 0 0 0-60.586666 0l-122.026667 120.32a42.666667 42.666667 0 0 1-60.586667 0l151.04-150.613333a42.666667 42.666667 0 1 0-60.586666-60.586667l-150.613334 151.04a42.666667 42.666667 0 0 1 0-60.16l120.746667-120.746667a42.666667 42.666667 0 1 0-60.586667-60.586666L567.466667 217.173333a128 128 0 0 0 0 180.906667L512 453.12l-352.853333-354.133333-4.266667-2.56a30.293333 30.293333 0 0 0-7.253333-4.693334l-7.68-2.986666L134.826667 85.333333h-11.52a24.32 24.32 0 0 0-7.68 0 29.866667 29.866667 0 0 0-7.253334 3.84l-6.826666 4.266667h-2.986667l-2.56 4.266667a42.666667 42.666667 0 0 0-4.693333 7.253333 45.653333 45.653333 0 0 0-2.986667 8.106667v4.693333a469.333333 469.333333 0 0 0 132.693333 398.506667l112.64 112.213333-230.826666 230.4a42.666667 42.666667 0 0 0 0 60.586667 42.666667 42.666667 0 0 0 30.293333 12.373333 42.666667 42.666667 0 0 0 30.293333-12.373333l258.986667-255.146667 120.746667-120.746667 85.333333-85.333333a128 128 0 0 0 90.026667 37.973333z m-326.4 77.653334l-112.213334-112.64A386.56 386.56 0 0 1 170.666667 230.4l282.026666 281.6z m266.24 24.32A42.666667 42.666667 0 0 0 597.333333 658.773333l268.8 268.8a42.666667 42.666667 0 0 0 29.866667 11.093334 42.666667 42.666667 0 0 0 30.293333-12.373334 42.666667 42.666667 0 0 0 0-60.586666z" p-id="8628"></path></svg>